<mxfile host="65bd71144e">
    <diagram id="t8QoFsj8MZgXzhcuyan1" name="Page-1">
        <mxGraphModel dx="1227" dy="1270" grid="1" gridSize="10" guides="1" tooltips="1" connect="1" arrows="1" fold="1" page="1" pageScale="1" pageWidth="2339" pageHeight="3300" math="0" shadow="0">
            <root>
                <mxCell id="0"/>
                <mxCell id="1" parent="0"/>
                <mxCell id="2" value="Batman" style="rounded=1;fontFamily=Alegreya;fontSource=https%3A%2F%2Ffonts.googleapis.com%2Fcss%3Ffamily%3DAlegreya;whiteSpace=wrap;" parent="1" vertex="1">
                    <mxGeometry x="350" y="130" width="60" height="30" as="geometry"/>
                </mxCell>
                <mxCell id="4" value="Monaco Franze" style="rounded=1;fontFamily=Alegreya;fontSource=https%3A%2F%2Ffonts.googleapis.com%2Fcss%3Ffamily%3DAlegreya;whiteSpace=wrap;" parent="1" vertex="1">
                    <mxGeometry x="440" y="130" width="100" height="30" as="geometry"/>
                </mxCell>
                <mxCell id="11" value="High Noon" style="rounded=1;fontFamily=Alegreya;fontSource=https%3A%2F%2Ffonts.googleapis.com%2Fcss%3Ffamily%3DAlegreya;whiteSpace=wrap;" parent="1" vertex="1">
                    <mxGeometry x="565" y="130" width="80" height="30" as="geometry"/>
                </mxCell>
                <mxCell id="12" value="Titanic" style="rounded=1;fontFamily=Alegreya;fontSource=https%3A%2F%2Ffonts.googleapis.com%2Fcss%3Ffamily%3DAlegreya;whiteSpace=wrap;" parent="1" vertex="1">
                    <mxGeometry x="1000" y="130" width="60" height="30" as="geometry"/>
                </mxCell>
                <mxCell id="13" value="Fluch der Karibik" style="rounded=1;fontFamily=Alegreya;fontSource=https%3A%2F%2Ffonts.googleapis.com%2Fcss%3Ffamily%3DAlegreya;whiteSpace=wrap;" parent="1" vertex="1">
                    <mxGeometry x="670" y="130" width="110" height="30" as="geometry"/>
                </mxCell>
                <mxCell id="14" value="König der Löwen" style="rounded=1;fontFamily=Alegreya;fontSource=https%3A%2F%2Ffonts.googleapis.com%2Fcss%3Ffamily%3DAlegreya;whiteSpace=wrap;" parent="1" vertex="1">
                    <mxGeometry x="860" y="130" width="110" height="30" as="geometry"/>
                </mxCell>
                <mxCell id="31" value="Cars 3" style="rounded=1;fontFamily=Alegreya;fontSource=https%3A%2F%2Ffonts.googleapis.com%2Fcss%3Ffamily%3DAlegreya;whiteSpace=wrap;" parent="1" vertex="1">
                    <mxGeometry x="800" y="130" width="40" height="30" as="geometry"/>
                </mxCell>
                <mxCell id="32" value="" style="endArrow=blockThin;html=1;fontFamily=Alegreya;fontSource=https%3A%2F%2Ffonts.googleapis.com%2Fcss%3Ffamily%3DAlegreya;endFill=1;" edge="1" parent="1">
                    <mxGeometry width="50" height="50" relative="1" as="geometry">
                        <mxPoint x="510" y="240" as="sourcePoint"/>
                        <mxPoint x="610" y="290" as="targetPoint"/>
                    </mxGeometry>
                </mxCell>
            </root>
        </mxGraphModel>
    </diagram>
</mxfile>
